<svg xmlns="http://www.w3.org/2000/svg" xmlns:xlink="http://www.w3.org/1999/xlink" width="195" height="55.106" viewBox="0 0 195 55.106">
  <defs>
    <linearGradient id="linear-gradient" x1="-2.075" y1="2.545" x2="-2.075" y2="2.547" gradientUnits="objectBoundingBox">
      <stop offset="0" stop-color="#006cff"/>
      <stop offset="1" stop-color="#0192f3"/>
    </linearGradient>
  </defs>
  <g id="_9Hz-Logo" data-name="9Hz-Logo" transform="translate(-44 -41.9)">
    <path id="Shape_2_copy" d="M92.05,95.1v-.086A25.928,25.928,0,1,1,95.774,81.61a26.6,26.6,0,0,1-.321,4.1,14.633,14.633,0,1,1-3.4,9.392Z" transform="translate(0 -12.718)" fill="url(#linear-gradient)"/>
    <path id="Shape_3" d="M155.713,213.511a35.6,35.6,0,0,1-4.861-.29l-5.049-6.272h.141c.447,0,2.062-.008,4.218-.125,1.215-.071,2.415-.157,3.551-.274,1.388-.141,2.713-.306,3.936-.51a27.988,27.988,0,0,0,7.26-2.023,10.739,10.739,0,0,0,1.372-.768,6.559,6.559,0,0,0,1.082-.894,4.32,4.32,0,0,0,.737-1.027,3.586,3.586,0,0,0,.345-1.168h-19.16a7.91,7.91,0,0,1-1.49.125,8.3,8.3,0,0,1-1.756-.18,6.753,6.753,0,0,1-1.952-.729,6.386,6.386,0,0,1-2.987-4.28V184.99a7.783,7.783,0,0,1,.188-.87,8.566,8.566,0,0,1,.306-.894,8.294,8.294,0,0,1,.5-1.027,5.742,5.742,0,0,1,1.787-1.921,5.461,5.461,0,0,1,1.372-.635,6.331,6.331,0,0,1,1.756-.243h25.252a7.527,7.527,0,0,1,.8.212,8.478,8.478,0,0,1,1.8.831,6.587,6.587,0,0,1,1.889,1.748,5.686,5.686,0,0,1,.7,1.309,6.631,6.631,0,0,1,.392,1.646v9.588a19.589,19.589,0,0,1-.329,2.618,25.187,25.187,0,0,1-.674,2.728,23.1,23.1,0,0,1-1.247,3.183,17.859,17.859,0,0,1-4.884,6.264,15.834,15.834,0,0,1-1.85,1.278,17.01,17.01,0,0,1-2.14,1.066,18,18,0,0,1-2.454.815,21.065,21.065,0,0,1-2.791.517c-.008,0-.666.071-1.7.141C158.818,213.432,157.336,213.511,155.713,213.511Zm12.261-28H151.2a1.587,1.587,0,0,0-.933.274,1.741,1.741,0,0,0-.525.6,2.466,2.466,0,0,0-.282.87v4.876a1.931,1.931,0,0,0,.635,1.623,1.886,1.886,0,0,0,1.137.345,2.491,2.491,0,0,0,.486-.047h15.672a2.171,2.171,0,0,0,1.756-.635,1.522,1.522,0,0,0,.251-.439,1.835,1.835,0,0,0,.086-.847V187.6a4.215,4.215,0,0,0-.329-1.152,1.955,1.955,0,0,0-.447-.627,1.089,1.089,0,0,0-.729-.314Z" transform="translate(-89.488 -126.72)" fill="#fff"/>
    <ellipse id="Shape_4" cx="10.411" cy="10.427" rx="10.411" ry="10.427" transform="translate(96.322 72.107)" fill="#fff"/>
    <path id="Path_1" d="M766.4,496.7h2.038v3.99h2V496.7h2.054v10.113h-2.054v-3.99h-2v3.99H766.4Zm6.672,9.11a.442.442,0,0,1,.024-.141,1.032,1.032,0,0,1,.055-.141l3.191-6.774h-3.261V496.7h5.347a.61.61,0,0,1,.549.314,1.159,1.159,0,0,1,.2.619v.172a.224.224,0,0,1-.047.172l-3.191,6.789h3.238V506.8h-5.315a.644.644,0,0,1-.337-.094.824.824,0,0,1-.243-.251,1.571,1.571,0,0,1-.149-.329A1.066,1.066,0,0,1,773.072,505.806Z" transform="translate(-665.766 -419.141)" fill="#474646"/>
    <path id="Path_3" d="M775.354,44.488l7.991,12.087V44.382a2.669,2.669,0,0,1,.51-1.785,1.733,1.733,0,0,1,1.38-.6,1.794,1.794,0,0,1,1.415.6,2.622,2.622,0,0,1,.519,1.785V60.513c0,1.8-.747,2.7-2.242,2.7a3.04,3.04,0,0,1-1.011-.158,2.543,2.543,0,0,1-.835-.51,4.961,4.961,0,0,1-.73-.818c-.22-.316-.448-.633-.668-.958l-7.8-11.946V60.838a2.57,2.57,0,0,1-.545,1.776,1.944,1.944,0,0,1-2.813-.009A2.573,2.573,0,0,1,770,60.838V45.015a4.523,4.523,0,0,1,.22-1.582A2.327,2.327,0,0,1,771.1,42.4a2.374,2.374,0,0,1,1.327-.4,2.244,2.244,0,0,1,.958.185,2.165,2.165,0,0,1,.7.492,4.97,4.97,0,0,1,.615.8C774.914,43.793,775.125,44.136,775.354,44.488Zm19.911,5.362V60.891a2.464,2.464,0,0,1-.545,1.732,1.8,1.8,0,0,1-1.389.589,1.728,1.728,0,0,1-1.363-.6,2.54,2.54,0,0,1-.528-1.723V49.964a2.431,2.431,0,0,1,.528-1.705,1.754,1.754,0,0,1,1.363-.571,1.844,1.844,0,0,1,1.389.571,2.21,2.21,0,0,1,.545,1.591Zm-1.89-3.947a2.032,2.032,0,0,1-1.363-.492,1.734,1.734,0,0,1-.563-1.389,1.714,1.714,0,0,1,.58-1.336,1.984,1.984,0,0,1,1.354-.527,2.009,2.009,0,0,1,1.319.475,1.715,1.715,0,0,1,.571,1.389,1.74,1.74,0,0,1-.562,1.38A1.963,1.963,0,0,1,793.375,45.9Zm9.3,3.885v.466a6.594,6.594,0,0,1,2.206-1.952,5.9,5.9,0,0,1,2.752-.624,5.454,5.454,0,0,1,2.7.659,4.184,4.184,0,0,1,1.776,1.864,4.368,4.368,0,0,1,.492,1.512,16.324,16.324,0,0,1,.114,2.075V60.9a2.5,2.5,0,0,1-.527,1.732,1.748,1.748,0,0,1-1.363.589,1.781,1.781,0,0,1-1.389-.6,2.541,2.541,0,0,1-.527-1.723V54.535a6.355,6.355,0,0,0-.527-2.892,2.137,2.137,0,0,0-2.092-1,3.168,3.168,0,0,0-1.864.607,3.478,3.478,0,0,0-1.231,1.67,12.06,12.06,0,0,0-.281,3.191v4.782a2.472,2.472,0,0,1-.536,1.741,1.818,1.818,0,0,1-1.389.58,1.726,1.726,0,0,1-1.354-.6,2.541,2.541,0,0,1-.527-1.723V49.85a2.38,2.38,0,0,1,.475-1.626,1.663,1.663,0,0,1,1.3-.536,1.81,1.81,0,0,1,.906.237,1.7,1.7,0,0,1,.651.712,2.6,2.6,0,0,1,.237,1.152Zm24.5,6.593H819.7a5.016,5.016,0,0,0,.527,2.294,3.623,3.623,0,0,0,1.354,1.494,3.574,3.574,0,0,0,1.864.5,4.587,4.587,0,0,0,1.248-.158,4.278,4.278,0,0,0,1.1-.5,7.911,7.911,0,0,0,.976-.738c.3-.264.686-.615,1.16-1.064a1.248,1.248,0,0,1,.835-.255,1.34,1.34,0,0,1,.949.325,1.172,1.172,0,0,1,.36.905,2.488,2.488,0,0,1-.4,1.213,4.739,4.739,0,0,1-1.222,1.327,7.052,7.052,0,0,1-2.057,1.055,8.827,8.827,0,0,1-2.848.422,7.627,7.627,0,0,1-5.723-2.1,7.809,7.809,0,0,1-2.039-5.7,9.534,9.534,0,0,1,.5-3.138,6.822,6.822,0,0,1,1.468-2.479,6.35,6.35,0,0,1,2.382-1.591,8.684,8.684,0,0,1,3.138-.554,7.494,7.494,0,0,1,3.842.941,6.275,6.275,0,0,1,2.4,2.444,6.393,6.393,0,0,1,.8,3.05c0,.958-.273,1.582-.826,1.864A5.144,5.144,0,0,1,827.174,56.381ZM819.7,54.21h6.927a4.65,4.65,0,0,0-1.055-2.927,3.152,3.152,0,0,0-2.417-.976,3.066,3.066,0,0,0-2.347.985A4.96,4.96,0,0,0,819.7,54.21Z" transform="translate(-669.084 -0.091)" fill="#006cff"/>
    <path id="Path_4" d="M1500.258,44.423V50.3h8.967V44.423a2.759,2.759,0,0,1,.563-1.89,1.9,1.9,0,0,1,1.494-.633,2,2,0,0,1,1.521.624,2.7,2.7,0,0,1,.58,1.9V60.58a2.657,2.657,0,0,1-.589,1.9,1.977,1.977,0,0,1-1.512.633,1.889,1.889,0,0,1-1.494-.633,2.814,2.814,0,0,1-.562-1.9V53.688h-8.967v6.9a2.657,2.657,0,0,1-.589,1.9,1.977,1.977,0,0,1-1.512.633,1.889,1.889,0,0,1-1.495-.633,2.814,2.814,0,0,1-.562-1.9V44.423a2.8,2.8,0,0,1,.554-1.89,1.9,1.9,0,0,1,1.5-.633,1.994,1.994,0,0,1,1.521.624A2.712,2.712,0,0,1,1500.258,44.423Zm27.981,11.867h-7.472a5.013,5.013,0,0,0,.527,2.294,3.622,3.622,0,0,0,1.354,1.494,3.573,3.573,0,0,0,1.863.5,4.588,4.588,0,0,0,1.248-.158,4.282,4.282,0,0,0,1.1-.5,7.91,7.91,0,0,0,.976-.738c.3-.264.685-.615,1.16-1.064a1.247,1.247,0,0,1,.835-.255,1.34,1.34,0,0,1,.949.325,1.179,1.179,0,0,1,.36.914,2.491,2.491,0,0,1-.4,1.213,4.738,4.738,0,0,1-1.222,1.327,7.05,7.05,0,0,1-2.057,1.055,8.827,8.827,0,0,1-2.848.422,7.626,7.626,0,0,1-5.723-2.1,7.809,7.809,0,0,1-2.04-5.7,9.543,9.543,0,0,1,.5-3.138,6.827,6.827,0,0,1,1.468-2.479,6.35,6.35,0,0,1,2.382-1.591,8.686,8.686,0,0,1,3.138-.554,7.5,7.5,0,0,1,3.842.941,6.273,6.273,0,0,1,2.4,2.444,6.4,6.4,0,0,1,.8,3.05c0,.958-.273,1.582-.827,1.864A5.129,5.129,0,0,1,1528.239,56.29Zm-7.472-2.171h6.927a4.65,4.65,0,0,0-1.055-2.927,3.165,3.165,0,0,0-2.417-.976,3.067,3.067,0,0,0-2.347.985,4.963,4.963,0,0,0-1.108,2.918Zm17.634,3.49V60.8a2.474,2.474,0,0,1-.545,1.741,1.809,1.809,0,0,1-1.389.58,1.731,1.731,0,0,1-1.354-.589,2.52,2.52,0,0,1-.527-1.732V50.163c0-1.714.624-2.576,1.863-2.576a1.568,1.568,0,0,1,1.371.6,3.373,3.373,0,0,1,.466,1.776,6.549,6.549,0,0,1,1.407-1.776,2.948,2.948,0,0,1,1.925-.6,4.946,4.946,0,0,1,2.338.6,1.8,1.8,0,0,1,1.134,1.591,1.609,1.609,0,0,1-1.53,1.609,5.047,5.047,0,0,1-1.011-.255,4.623,4.623,0,0,0-1.424-.255,2.086,2.086,0,0,0-1.371.44,2.81,2.81,0,0,0-.826,1.31,9.154,9.154,0,0,0-.4,2.066,27.583,27.583,0,0,0-.123,2.918Zm9.318-9.687h.422V45.627q0-.923.052-1.45a2.209,2.209,0,0,1,.273-.905,1.77,1.77,0,0,1,.642-.633,1.834,1.834,0,0,1,.941-.246,1.9,1.9,0,0,1,1.318.545,1.668,1.668,0,0,1,.5.888,8.462,8.462,0,0,1,.105,1.486v2.6h1.4a1.805,1.805,0,0,1,1.24.387,1.268,1.268,0,0,1,.431.985,1.119,1.119,0,0,1-.606,1.081,3.858,3.858,0,0,1-1.741.308h-.712V57.7a12.086,12.086,0,0,0,.062,1.38,1.425,1.425,0,0,0,.334.782,1.141,1.141,0,0,0,.888.3,4.492,4.492,0,0,0,.905-.123,5.119,5.119,0,0,1,.9-.123,1.167,1.167,0,0,1,.835.369,1.227,1.227,0,0,1,.369.914,1.531,1.531,0,0,1-1.011,1.415,6.825,6.825,0,0,1-2.892.492,5.06,5.06,0,0,1-2.716-.6,2.8,2.8,0,0,1-1.213-1.661,11.166,11.166,0,0,1-.29-2.839V50.673h-.5a1.8,1.8,0,0,1-1.257-.4,1.3,1.3,0,0,1-.431-.993,1.225,1.225,0,0,1,.457-.985,1.948,1.948,0,0,1,1.3-.378Zm20.315,4.044-7,7.824h7.481a1.93,1.93,0,0,1,1.371.431,1.448,1.448,0,0,1,.466,1.1,1.348,1.348,0,0,1-.457,1.046,2.007,2.007,0,0,1-1.38.4h-10.355a2.379,2.379,0,0,1-1.626-.475,1.634,1.634,0,0,1-.536-1.3,1.6,1.6,0,0,1,.378-.985c.255-.334.774-.941,1.565-1.828.835-.932,1.6-1.776,2.286-2.532s1.318-1.459,1.908-2.119,1.073-1.213,1.459-1.67.695-.853.932-1.178h-5.67a5.652,5.652,0,0,1-1.776-.211c-.4-.141-.6-.51-.6-1.108a1.281,1.281,0,0,1,.457-1.046,1.909,1.909,0,0,1,1.292-.4h8.773a3.934,3.934,0,0,1,1.864.36,1.342,1.342,0,0,1,.65,1.283,1.731,1.731,0,0,1-.123.633,2.409,2.409,0,0,1-.281.536c-.106.141-.246.308-.422.51s-.4.448-.66.721Z" transform="translate(-1331.355)" fill="#fff"/>
    <path id="Path_2" d="M1038.1,374.3v-6.8h2.338a5.652,5.652,0,0,1,1.213.1,2.286,2.286,0,0,1,.993.483,2.735,2.735,0,0,1,.8,1.16,4.6,4.6,0,0,1,.264,1.617,4.534,4.534,0,0,1-.185,1.371,3.312,3.312,0,0,1-.466.993,2.558,2.558,0,0,1-.615.615,2.637,2.637,0,0,1-.809.343,4.549,4.549,0,0,1-1.09.114Zm.9-.8h1.451a3.571,3.571,0,0,0,1.055-.123,1.453,1.453,0,0,0,.607-.352,2.184,2.184,0,0,0,.5-.862,4.135,4.135,0,0,0,.176-1.31,3.1,3.1,0,0,0-.352-1.635,1.759,1.759,0,0,0-.852-.765,3.4,3.4,0,0,0-1.161-.141H1039Zm5.978.8v-6.8h4.914v.8h-4.017v2.083h3.762v.8h-3.762V373.5h4.175v.8Zm6.276,0v-6.8h.9v6h3.349v.8Zm5.468,0v-6.8h.9v6.8Zm4.43,0-2.628-6.8h.976l1.767,4.94c.141.4.264.765.36,1.116.105-.369.229-.738.369-1.116l1.837-4.94h.914l-2.663,6.8Zm4.4,0v-6.8h4.914v.8h-4.017v2.083h3.762v.8h-3.762V373.5h4.176v.8Zm6.329,0v-6.8h3.015a3.975,3.975,0,0,1,1.38.185,1.517,1.517,0,0,1,.756.651,1.907,1.907,0,0,1,.281,1.029,1.758,1.758,0,0,1-.466,1.222,2.346,2.346,0,0,1-1.45.633,2.674,2.674,0,0,1,.545.334,4.944,4.944,0,0,1,.747.906l1.178,1.846h-1.134l-.9-1.415c-.264-.4-.475-.721-.65-.941a2.051,2.051,0,0,0-.457-.457,1.605,1.605,0,0,0-.413-.185,3.2,3.2,0,0,0-.5-.035h-1.046v3.015h-.888Zm.9-3.8h1.934a3.024,3.024,0,0,0,.967-.132,1.013,1.013,0,0,0,.527-.4,1.091,1.091,0,0,0,.185-.607,1,1,0,0,0-.352-.791,1.62,1.62,0,0,0-1.108-.308h-2.154Zm6.1,3.8v-6.8h.9v6.8Zm2.47,0v-6.8h.923l3.569,5.336v-5.336h.862v6.8h-.923l-3.569-5.336V374.3Zm10.048-2.664v-.8l2.875-.009v2.523a4.847,4.847,0,0,1-1.371.791,4.074,4.074,0,0,1-1.45.264,3.853,3.853,0,0,1-1.82-.431,2.816,2.816,0,0,1-1.24-1.239,3.935,3.935,0,0,1-.413-1.811,4.233,4.233,0,0,1,.413-1.855,2.713,2.713,0,0,1,1.2-1.275,3.636,3.636,0,0,1,1.793-.413,3.487,3.487,0,0,1,1.336.237,2.2,2.2,0,0,1,.932.668,3.087,3.087,0,0,1,.519,1.116l-.809.22a2.568,2.568,0,0,0-.378-.817,1.527,1.527,0,0,0-.651-.475,2.3,2.3,0,0,0-.94-.176,2.741,2.741,0,0,0-1.064.185,2.059,2.059,0,0,0-.73.492,2.561,2.561,0,0,0-.431.668,3.629,3.629,0,0,0-.264,1.371,3.276,3.276,0,0,0,.316,1.521,1.985,1.985,0,0,0,.914.905,2.88,2.88,0,0,0,1.266.3,3.012,3.012,0,0,0,1.143-.229,2.884,2.884,0,0,0,.844-.484v-1.266H1091.4Zm6.531.475.844-.07a1.889,1.889,0,0,0,.281.835,1.559,1.559,0,0,0,.686.527,2.523,2.523,0,0,0,1.046.2,2.449,2.449,0,0,0,.905-.149,1.285,1.285,0,0,0,.589-.422.978.978,0,0,0,.193-.58.938.938,0,0,0-.184-.563,1.413,1.413,0,0,0-.615-.4,11.224,11.224,0,0,0-1.213-.334,6.128,6.128,0,0,1-1.31-.422,1.875,1.875,0,0,1-.73-.633,1.515,1.515,0,0,1-.237-.844,1.754,1.754,0,0,1,.29-.958,1.8,1.8,0,0,1,.853-.677,3.176,3.176,0,0,1,1.248-.229,3.335,3.335,0,0,1,1.336.246,1.96,1.96,0,0,1,.888.712,2.007,2.007,0,0,1,.334,1.072l-.861.062a1.368,1.368,0,0,0-.475-.976,1.819,1.819,0,0,0-1.187-.325,1.867,1.867,0,0,0-1.187.3.891.891,0,0,0-.369.721.777.777,0,0,0,.264.607,3.621,3.621,0,0,0,1.354.484,9.3,9.3,0,0,1,1.5.431,2.107,2.107,0,0,1,.879.695,1.656,1.656,0,0,1,.281.967,1.829,1.829,0,0,1-.308,1.02,2.012,2.012,0,0,1-.9.747,3.066,3.066,0,0,1-1.31.264,3.811,3.811,0,0,1-1.547-.273,2.188,2.188,0,0,1-.976-.809A2.373,2.373,0,0,1,1097.929,372.114Zm6.364-1.125a3.675,3.675,0,0,1,.906-2.646,3.113,3.113,0,0,1,2.347-.958,3.269,3.269,0,0,1,1.7.448,2.948,2.948,0,0,1,1.152,1.257,4.094,4.094,0,0,1,.4,1.82,4.053,4.053,0,0,1-.413,1.846A2.816,2.816,0,0,1,1109.2,374a3.373,3.373,0,0,1-1.652.422,3.185,3.185,0,0,1-1.714-.466,2.9,2.9,0,0,1-1.143-1.266,3.787,3.787,0,0,1-.4-1.7Zm.932.018a2.715,2.715,0,0,0,.659,1.934,2.155,2.155,0,0,0,1.661.7,2.182,2.182,0,0,0,1.67-.712,2.873,2.873,0,0,0,.659-2.022,3.559,3.559,0,0,0-.281-1.45,2.172,2.172,0,0,0-.818-.958,2.26,2.26,0,0,0-1.213-.343,2.3,2.3,0,0,0-1.644.659,2.878,2.878,0,0,0-.695,2.189Zm6.689,3.3v-6.8h.9v6h3.349v.8Zm9.775-6.8h.9v3.929a4.768,4.768,0,0,1-.229,1.626,1.99,1.99,0,0,1-.835.985,2.941,2.941,0,0,1-1.591.378,3.28,3.28,0,0,1-1.565-.325,1.869,1.869,0,0,1-.87-.949,4.471,4.471,0,0,1-.264-1.705v-3.929h.9v3.921a3.652,3.652,0,0,0,.167,1.3,1.31,1.31,0,0,0,.563.65,2.005,2.005,0,0,0,.984.229,1.884,1.884,0,0,0,1.415-.448,2.6,2.6,0,0,0,.422-1.732Zm4.123,6.8v-6h-2.242v-.8h5.389v.8h-2.25v6Zm4.228,0v-6.8h.9v6.8Zm2.207-3.314a3.675,3.675,0,0,1,.905-2.646,3.081,3.081,0,0,1,2.347-.958,3.268,3.268,0,0,1,1.7.448,2.946,2.946,0,0,1,1.152,1.257,4.356,4.356,0,0,1-.018,3.666,2.816,2.816,0,0,1-1.178,1.239,3.373,3.373,0,0,1-1.653.422,3.185,3.185,0,0,1-1.714-.466,2.894,2.894,0,0,1-1.143-1.266A3.786,3.786,0,0,1,1132.248,370.989Zm.932.018a2.716,2.716,0,0,0,.659,1.934,2.156,2.156,0,0,0,1.661.7,2.182,2.182,0,0,0,1.67-.712,2.872,2.872,0,0,0,.659-2.022,3.557,3.557,0,0,0-.281-1.45,2.172,2.172,0,0,0-.818-.958,2.26,2.26,0,0,0-1.213-.343,2.3,2.3,0,0,0-1.644.659,2.879,2.879,0,0,0-.695,2.189Zm6.716,3.3v-6.8h.923l3.569,5.336v-5.336h.862v6.8h-.923l-3.569-5.336V374.3Zm6.558-2.189.844-.07a1.884,1.884,0,0,0,.281.835,1.557,1.557,0,0,0,.686.527,2.523,2.523,0,0,0,1.046.2,2.449,2.449,0,0,0,.905-.149,1.284,1.284,0,0,0,.589-.422.977.977,0,0,0,.193-.58.938.938,0,0,0-.185-.563,1.413,1.413,0,0,0-.615-.4,11.237,11.237,0,0,0-1.213-.334,6.129,6.129,0,0,1-1.31-.422,1.873,1.873,0,0,1-.729-.633,1.514,1.514,0,0,1-.237-.844,1.753,1.753,0,0,1,.29-.958,1.8,1.8,0,0,1,.853-.677,3.177,3.177,0,0,1,1.248-.229,3.334,3.334,0,0,1,1.336.246,1.961,1.961,0,0,1,.888.712,2.008,2.008,0,0,1,.334,1.072l-.862.062a1.369,1.369,0,0,0-.475-.976,1.821,1.821,0,0,0-1.187-.325,1.867,1.867,0,0,0-1.187.3.891.891,0,0,0-.369.721.776.776,0,0,0,.264.607,3.618,3.618,0,0,0,1.354.484,9.3,9.3,0,0,1,1.5.431,2.107,2.107,0,0,1,.879.695,1.655,1.655,0,0,1,.281.967,1.829,1.829,0,0,1-.308,1.02,2.011,2.011,0,0,1-.9.747,3.066,3.066,0,0,1-1.31.264,3.811,3.811,0,0,1-1.547-.273,2.189,2.189,0,0,1-.976-.809,2.37,2.37,0,0,1-.369-1.222Z" transform="translate(-913.616 -296.871)" fill="#fff"/>
  </g>
</svg>
